<svg width="65" height="64" viewBox="0 0 65 64" fill="none" xmlns="http://www.w3.org/2000/svg">
<rect x="0.850529" y="0.639836" width="62.7739" height="62.7739" rx="31.387" stroke="black" stroke-opacity="0.23" stroke-width="0.980843"/>
<path d="M23.5197 44.5269V41.1664L32.435 32.4265C33.2877 31.5655 33.9983 30.8006 34.5667 30.1319C35.1351 29.4631 35.5615 28.8153 35.8457 28.1883C36.1299 27.5613 36.272 26.8926 36.272 26.182C36.272 25.3712 36.0881 24.6773 35.7203 24.1005C35.3525 23.5154 34.8467 23.064 34.2031 22.7463C33.5594 22.4286 32.8279 22.2698 32.0087 22.2698C31.1644 22.2698 30.4246 22.4453 29.7893 22.7964C29.154 23.1392 28.6607 23.6282 28.3096 24.2635C27.9669 24.8989 27.7955 25.6554 27.7955 26.5331H23.3692C23.3692 24.903 23.7412 23.4861 24.4852 22.2823C25.2292 21.0786 26.2532 20.1465 27.5573 19.4861C28.8697 18.8257 30.3744 18.4955 32.0714 18.4955C33.7935 18.4955 35.3065 18.8173 36.6106 19.461C37.9147 20.1047 38.9262 20.9866 39.6451 22.1068C40.3723 23.227 40.736 24.506 40.736 25.9438C40.736 26.9051 40.5521 27.8497 40.1843 28.7776C39.8164 29.7055 39.1686 30.7338 38.2407 31.8623C37.3211 32.9908 36.0296 34.3576 34.3661 35.9626L29.9397 40.4642V40.6397H41.1247V44.5269H23.5197Z" fill="black"/>
</svg>
