<svg width="64" height="64" viewBox="0 0 64 64" fill="none" xmlns="http://www.w3.org/2000/svg">
<rect x="0.49799" y="0.640324" width="62.7739" height="62.7739" rx="31.387" stroke="black" stroke-opacity="0.23" stroke-width="0.980843"/>
<path d="M31.8834 44.8784C30.0778 44.8784 28.4728 44.5691 27.0684 43.9505C25.6724 43.3319 24.5689 42.4709 23.7581 41.3675C22.9472 40.264 22.5167 38.9892 22.4665 37.543H27.1812C27.223 38.2369 27.4529 38.8429 27.8709 39.3612C28.2889 39.8711 28.8448 40.2682 29.5386 40.5524C30.2325 40.8366 31.0099 40.9788 31.8709 40.9788C32.7904 40.9788 33.6055 40.8199 34.316 40.5023C35.0266 40.1762 35.5825 39.7248 35.9838 39.148C36.385 38.5712 36.5815 37.9067 36.5731 37.1543C36.5815 36.3769 36.3808 35.6914 35.9712 35.0979C35.5616 34.5044 34.9681 34.0404 34.1907 33.706C33.4216 33.3716 32.4937 33.2045 31.407 33.2045H29.1374V29.6183H31.407C32.3014 29.6183 33.083 29.4636 33.7518 29.1543C34.4289 28.845 34.9597 28.4103 35.3443 27.8502C35.7288 27.2818 35.9169 26.6256 35.9085 25.8816C35.9169 25.1543 35.7539 24.5232 35.4195 23.9882C35.0935 23.4448 34.6295 23.0226 34.0276 22.7217C33.4341 22.4208 32.7361 22.2703 31.9336 22.2703C31.1478 22.2703 30.4205 22.4124 29.7518 22.6966C29.083 22.9808 28.5438 23.3863 28.1342 23.9129C27.7246 24.4312 27.5073 25.0498 27.4822 25.7687H23.0057C23.0391 24.3309 23.4529 23.0686 24.2471 21.9819C25.0496 20.8868 26.1196 20.0341 27.4571 19.4239C28.7946 18.8053 30.2951 18.496 31.9587 18.496C33.6724 18.496 35.1603 18.8178 36.4226 19.4615C37.6933 20.0968 38.6755 20.9537 39.3693 22.032C40.0632 23.1104 40.4101 24.3016 40.4101 25.6057C40.4184 27.0519 39.9921 28.264 39.1311 29.2421C38.2784 30.2201 37.1583 30.8596 35.7706 31.1606V31.3612C37.5762 31.612 38.9597 32.2807 39.9211 33.3675C40.8908 34.4458 41.3714 35.7875 41.3631 37.3925C41.3631 38.8304 40.9535 40.1177 40.1342 41.2546C39.3234 42.3831 38.2032 43.2692 36.7737 43.9129C35.3526 44.5566 33.7225 44.8784 31.8834 44.8784Z" fill="black"/>
</svg>
