<svg width="61" height="60" viewBox="0 0 61 60" fill="none" xmlns="http://www.w3.org/2000/svg">
<rect x="1" y="0.5" width="59" height="59" rx="19.5" fill="white"/>
<rect x="1" y="0.5" width="59" height="59" rx="19.5" stroke="black"/>
<path d="M39.25 28.7508H24.425L28.9625 23.3008C29.1747 23.0456 29.2768 22.7165 29.2463 22.3859C29.2158 22.0554 29.0553 21.7505 28.8 21.5383C28.5447 21.3262 28.2156 21.2241 27.8851 21.2546C27.5546 21.285 27.2497 21.4456 27.0375 21.7008L20.7875 29.2008C20.7455 29.2605 20.7078 29.3232 20.675 29.3883C20.675 29.4508 20.675 29.4883 20.5875 29.5508C20.5308 29.6942 20.5012 29.8467 20.5 30.0008C20.5012 30.1549 20.5308 30.3075 20.5875 30.4508C20.5875 30.5133 20.5875 30.5508 20.675 30.6133C20.7078 30.6785 20.7455 30.7412 20.7875 30.8008L27.0375 38.3008C27.155 38.4419 27.3022 38.5554 27.4686 38.6332C27.6349 38.711 27.8164 38.7511 28 38.7508C28.2921 38.7514 28.5751 38.6497 28.8 38.4633C28.9266 38.3584 29.0312 38.2295 29.1079 38.0841C29.1846 37.9387 29.2318 37.7795 29.2469 37.6158C29.262 37.4521 29.2447 37.287 29.1959 37.13C29.1471 36.973 29.0678 36.8271 28.9625 36.7008L24.425 31.2508H39.25C39.5815 31.2508 39.8995 31.1191 40.1339 30.8847C40.3683 30.6503 40.5 30.3324 40.5 30.0008C40.5 29.6693 40.3683 29.3514 40.1339 29.1169C39.8995 28.8825 39.5815 28.7508 39.25 28.7508Z" fill="#1A202C"/>
</svg>
