<svg width="61" height="60" viewBox="0 0 61 60" fill="none" xmlns="http://www.w3.org/2000/svg">
<rect x="1" y="0.5" width="59" height="59" rx="19.5" stroke="black"/>
<path d="M21.75 28.7508H36.575L32.0375 23.3008C31.8253 23.0456 31.7232 22.7165 31.7537 22.3859C31.7842 22.0554 31.9447 21.7505 32.2 21.5383C32.4553 21.3262 32.7844 21.2241 33.1149 21.2546C33.4454 21.285 33.7503 21.4456 33.9625 21.7008L40.2125 29.2008C40.2545 29.2605 40.2922 29.3232 40.325 29.3883C40.325 29.4508 40.325 29.4883 40.4125 29.5508C40.4692 29.6942 40.4988 29.8467 40.5 30.0008C40.4988 30.1549 40.4692 30.3075 40.4125 30.4508C40.4125 30.5133 40.4125 30.5508 40.325 30.6133C40.2922 30.6785 40.2545 30.7412 40.2125 30.8008L33.9625 38.3008C33.845 38.4419 33.6978 38.5554 33.5314 38.6332C33.3651 38.711 33.1836 38.7511 33 38.7508C32.7079 38.7514 32.4249 38.6497 32.2 38.4633C32.0734 38.3584 31.9688 38.2295 31.8921 38.0841C31.8154 37.9387 31.7682 37.7795 31.7531 37.6158C31.738 37.4521 31.7553 37.287 31.8041 37.13C31.8529 36.973 31.9322 36.8271 32.0375 36.7008L36.575 31.2508H21.75C21.4185 31.2508 21.1005 31.1191 20.8661 30.8847C20.6317 30.6503 20.5 30.3324 20.5 30.0008C20.5 29.6693 20.6317 29.3514 20.8661 29.1169C21.1005 28.8825 21.4185 28.7508 21.75 28.7508Z" fill="#486284"/>
</svg>
