<svg width="12" height="12" viewBox="0 0 12 12" fill="none" xmlns="http://www.w3.org/2000/svg">
<path d="M3.4023 11.3272C3.02402 11.5554 2.55733 11.2168 2.65689 10.7864L3.33841 7.84016C3.38015 7.65972 3.31873 7.471 3.1788 7.34969L0.892488 5.36751C0.558724 5.07815 0.736699 4.5298 1.17678 4.4916L4.19994 4.22917C4.38453 4.21315 4.54512 4.09636 4.61725 3.9257L5.78944 1.15221C5.96152 0.745074 6.53848 0.745074 6.71056 1.15221L7.88275 3.9257C7.95488 4.09636 8.11547 4.21315 8.30006 4.22917L11.3232 4.4916C11.7633 4.5298 11.9413 5.07815 11.6075 5.36751L9.3212 7.34969C9.18127 7.471 9.11985 7.65972 9.16159 7.84016L9.84311 10.7864C9.94267 11.2168 9.47598 11.5554 9.0977 11.3272L6.50827 9.76517C6.34942 9.66935 6.15058 9.66935 5.99173 9.76517L3.4023 11.3272Z" fill="#D9700F"/>
</svg>
